{"title":"Guardians Of The Galaxy (2014) 720p BLuRay x264 [Eng DD 5.1] Xde","uid":11481627,"size":1490336628,"categoryP":"video","categoryS":"hd___movies","magnet":"?xt=urn:btih:07ce32e3b55501f643b406ff6d07c75b54284719&amp;dn=Guardians+Of+The+Galaxy+%282014%29+720p+BLuRay+x264+%5BEng+DD+5.1%5D+Xde&amp;tr=udp%3A%2F%2Ftracker.openbittorrent.com%3A80&amp;tr=udp%3A%2F%2Fopen.demonii.com%3A1337&amp;tr=udp%3A%2F%2Ftracker.coppersurfer.tk%3A6969&amp;tr=udp%3A%2F%2Fexodus.desync.com%3A6969","seeders":6,"leechers":0,"uploader":"Xdesiars","files":5,"time":1416187619,"description":"Format                                   : Matroska\nFormat version                           : Version 2\nFile size                                : 1.38 GiB\nDuration                                 : 2h 0mn\nOverall bit rate                         : 1 636 Kbps\nMovie name                               : Guardians Of The Galaxy (2014) by XdesiArsenal [ExD-XMR]\nEncoded date                             : UTC 2014-11-16 23:45:26\nWriting application                      : mkvmerge v5.0.1 ('Es ist Sommer') built on Nov 23 2011 20:48:57\nWriting library                          : libebml v1.2.2 + libmatroska v1.3.0\n\nVideo\nID                                       : 1\nFormat                                   : AVC\nFormat/Info                              : Advanced Video Codec\nFormat profile                           : &lt;a class=&quot;__cf_email__&quot; href=&quot;/cdn-cgi/l/email-protection&quot; data-cfemail=&quot;b5f8d4dcdbf5f9869b84&quot;&gt;[email&amp;#160;protected]&lt;/a&gt;&lt;script cf-hash='f9e31' type=&quot;text/javascript&quot;&gt;\n/* &lt;![CDATA[ */!function(){try{var t=&quot;currentScript&quot;in document?document.currentScript:function(){for(var t=document.getElementsByTagName(&quot;script&quot;),e=t.length;e--;)if(t[e].getAttribute(&quot;cf-hash&quot;))return t[e]}();if(t&amp;&amp;t.previousSibling){var e,r,n,i,c=t.previousSibling,a=c.getAttribute(&quot;data-cfemail&quot;);if(a){for(e=&quot;&quot;,r=parseInt(a.substr(0,2),16),n=2;a.length-n;n+=2)i=parseInt(a.substr(n,2),16)^r,e+=String.fromCharCode(i);e=document.createTextNode(e),c.parentNode.replaceChild(e,c)}}}catch(u){}}();/* ]]&gt; */&lt;/script&gt;\nFormat settings, CABAC                   : Yes\nFormat settings, ReFrames                : 4 frames\nMuxing mode                              : Header stripping\nCodec ID                                 : V_MPEG4/ISO/AVC\nDuration                                 : 2h 0mn\nBit rate                                 : 1 411 Kbps\nWidth                                    : 1 280 pixels\nHeight                                   : 720 pixels\nDisplay aspect ratio                     : 2.40:1\nFrame rate mode                          : Constant\nFrame rate                               : 23.976 fps\nColor space                              : YUV\nChroma subsampling                       : 4:2:0\nBit depth                                : 8 bits\nScan type                                : Progressive\nBits/(Pixel*Frame)                       : 0.064\nStream size                              : 1.19 GiB (86%)\nTitle                                    : Guardians Of The Galaxy (2014) by XdesiArsenal [ExD-XMR]\nWriting library                          : x264 core 112\nLanguage                                 : English\nDefault                                  : Yes\nForced                                   : No\nColor primaries                          : BT.709\nTransfer characteristics                 : BT.709\nMatrix coefficients                      : BT.709\n\nAudio\nID                                       : 2\nFormat                                   : AC-3\nFormat/Info                              : Audio Coding 3\nMode extension                           : CM (complete main)\nFormat settings, Endianness              : Big\nMuxing mode                              : Header stripping\nCodec ID                                 : A_AC3\nDuration                                 : 2h 0mn\nBit rate mode                            : Constant\nBit rate                                 : 192 Kbps\nChannel(s)                               : 6 channels\nChannel positions                        : Front: L C R, Side: L R, LFE\nSampling rate                            : 48.0 KHz\nBit depth                                : 16 bits\nCompression mode                         : Lossy\nStream size                              : 166 MiB (12%)\nTitle                                    : XdesiArsenal DD 5.1\nLanguage                                 : English\nDefault                                  : Yes\nForced                                   : No\n\nMenu\n00:00:00.000                             : en:Chapter 1\n00:04:05.746                             : en:Chapter 2\n00:11:21.891                             : en:Chapter 3\n00:15:21.714                             : en:Chapter 4\n00:20:54.547                             : en:Chapter 5\n00:27:11.299                             : en:Chapter 6\n00:33:58.832                             : en:Chapter 7\n00:44:28.295                             : en:Chapter 8\n00:50:53.138                             : en:Chapter 9\n00:55:17.695                             : en:Chapter 10\n00:59:45.254                             : en:Chapter 11\n01:06:07.053                             : en:Chapter 12\n01:14:46.072                             : en:Chapter 13\n01:22:20.777                             : en:Chapter 14\n01:26:29.860                             : en:Chapter 15\n01:30:23.969                             : en:Chapter 16\n01:35:58.429                             : en:Chapter 17\n01:40:46.800                             : en:Chapter 18\n01:47:35.376                             : en:Chapter 19\n01:53:16.717                             : en:Chapter 20\n02:00:10.882                             : en:Chapter 21","torrent":{"xt":"urn:btih:07ce32e3b55501f643b406ff6d07c75b54284719","amp;dn":"Guardians+Of+The+Galaxy+%282014%29+720p+BLuRay+x264+%5BEng+DD+5.1%5D+Xde","amp;tr":["udp%3A%2F%2Ftracker.openbittorrent.com%3A80","udp%3A%2F%2Fopen.demonii.com%3A1337","udp%3A%2F%2Ftracker.coppersurfer.tk%3A6969","udp%3A%2F%2Fexodus.desync.com%3A6969"],"infoHash":"07ce32e3b55501f643b406ff6d07c75b54284719","infoHashBuffer":{"type":"Buffer","data":[7,206,50,227,181,85,1,246,67,180,6,255,109,7,199,91,84,40,71,25]},"announce":[],"urlList":[]}}